<?xml version="1.0" standalone="no"?>
<!DOCTYPE svg PUBLIC "-//W3C//DTD SVG 20010904//EN"
 "http://www.w3.org/TR/2001/REC-SVG-20010904/DTD/svg10.dtd">
<svg version="1.0" xmlns="http://www.w3.org/2000/svg"
 width="1284.000000pt" height="1284.000000pt" viewBox="0 0 1284.000000 1284.000000"
 preserveAspectRatio="xMidYMid meet">
<g transform="translate(0.000000,1284.000000) scale(0.100000,-0.100000)"
fill="#000000" stroke="none">
<path d="M0 6420 l0 -3570 700 0 700 0 0 1430 0 1430 1440 0 1440 0 0 710 0
710 -1440 0 -1440 0 0 715 0 715 2150 0 2150 0 0 -2855 0 -2855 700 0 700 0 0
2140 0 2140 725 0 725 0 0 -710 0 -710 715 0 715 0 0 -715 0 -715 715 0 715 0
0 -715 0 -715 715 0 715 0 0 3570 0 3570 -715 0 -715 0 0 -2140 0 -2140 -715
0 -715 0 0 710 0 710 -715 0 -715 0 0 715 0 715 -725 0 -725 0 0 715 0 715
-3550 0 -3550 0 0 -3570z"/>
</g>
</svg>
